<svg xmlns="http://www.w3.org/2000/svg" width="208.359" height="284.876" viewBox="0 0 208.359 284.876">
  <defs>
    <style>
      .cls-1 {
        fill: #fff;
        stroke-width: 6px;
      }

      .cls-1, .cls-2, .cls-3 {
        stroke: #101426;
        stroke-miterlimit: 10;
      }

      .cls-2 {
        fill: #101426;
      }

      .cls-2, .cls-3 {
        stroke-width: 2px;
      }

      .cls-3 {
        fill: #181d33;
      }

      .cls-4 {
        fill: none;
      }

      .cls-5 {
        fill: #464749;
      }
    </style>
  </defs>
  <g id="Component_12_1" data-name="Component 12 – 1" transform="translate(1.014 3)">
    <path id="Path_27" data-name="Path 27" class="cls-1" d="M-224.01,154.288h-30.749V230c0,4.948,2.731,7.67,7.67,7.67h2.841c4.948,0,7.67-2.723,7.67-7.67V170.514h12.568c4.948,0,7.67-2.723,7.67-7.67v-.885C-216.339,157.011-219.062,154.288-224.01,154.288Z" transform="translate(349.395 -154.288)"/>
    <path id="Path_46" data-name="Path 46" class="cls-2" d="M-152.2,220.883a102.433,102.433,0,0,1-104.2,76.009,102.751,102.751,0,0,1-21.017-3.308,102.373,102.373,0,0,1-72.7-125.209,102.417,102.417,0,0,1,94.732-76.066,102.308,102.308,0,0,1,30.478,3.365,102.5,102.5,0,0,1,75.074,84.108A101.724,101.724,0,0,1-152.2,220.883Z" transform="translate(353.566 -53.889)"/>
    <path id="Path_28" data-name="Path 28" class="cls-1" d="M-258.551,154.288v16.226h-12.677c-4.948,0-7.67-2.723-7.67-7.67v-.885c0-4.948,2.723-7.67,7.67-7.67Z" transform="translate(353.187 -154.288)"/>
    <path id="Path_31" data-name="Path 31" class="cls-3" d="M-197.26,192.09a79.51,79.51,0,0,1-80.883,59,79.757,79.757,0,0,1-16.313-2.568,79.463,79.463,0,0,1-56.431-97.189A79.5,79.5,0,0,1-277.356,92.29,79.412,79.412,0,0,1-253.7,94.9,79.473,79.473,0,0,1-197.26,192.09Z" transform="translate(376.483 -30.972)"/>
    <path id="Path_38" data-name="Path 38" class="cls-4" d="M-224.01,154.288h-30.749V230c0,4.948,2.731,7.67,7.67,7.67h2.841c4.948,0,7.67-2.723,7.67-7.67V170.514h12.568c4.948,0,7.67-2.723,7.67-7.67v-.885C-216.339,157.011-219.062,154.288-224.01,154.288Z" transform="translate(-142.05 436.164) rotate(180)"/>
    <path id="Path_39" data-name="Path 39" class="cls-4" d="M-258.551,154.288v16.226h-12.677c-4.948,0-7.67-2.723-7.67-7.67v-.885c0-4.948,2.723-7.67,7.67-7.67Z" transform="translate(-145.842 436.164) rotate(180)"/>
    <path id="Path_40" data-name="Path 40" class="cls-4" d="M-152.2,220.883a102.433,102.433,0,0,1-104.2,76.009,102.751,102.751,0,0,1-21.017-3.308,102.373,102.373,0,0,1-72.7-125.209,102.417,102.417,0,0,1,94.732-76.066,102.308,102.308,0,0,1,30.478,3.365A102.386,102.386,0,0,1-152.2,220.883Z" transform="translate(-146.221 337.765) rotate(180)"/>
    <path id="Path_34" data-name="Path 34" class="cls-5" d="M-239.191,263.333a63.291,63.291,0,0,0,55.889-58.38,4.685,4.685,0,0,1,4.1-4.378,4.6,4.6,0,0,1,5.085,4.552c0,.1,0,.207-.008.306a72.5,72.5,0,0,1-64.033,67.032,4.6,4.6,0,0,1-5.107-4.323h0A4.59,4.59,0,0,1-239.191,263.333Z" transform="translate(345.092 -63.655)"/>
    <ellipse id="Ellipse_3" data-name="Ellipse 3" class="cls-5" cx="3.982" cy="3.982" rx="3.982" ry="3.982" transform="translate(162.449 122.236)"/>
  </g>
</svg>
